<?xml version="1.0" encoding="utf-8"?><svg viewBox="0 0 50 50" xmlns="http://www.w3.org/2000/svg" xmlns:xlink="http://www.w3.org/1999/xlink"><style>:root>svg{display:none}:root>svg:target{display:block}</style><svg viewBox="0 0 10 10" id="arrow" xmlns="http://www.w3.org/2000/svg"><g clip-path="url(#aclip0)"><path d="M7.46 9.84l.33-.327a.543.543 0 00.16-.387.543.543 0 00-.16-.387L4.052 5.002l3.74-3.74a.543.543 0 00.16-.387.543.543 0 00-.16-.387L7.466.16a.548.548 0 00-.774 0l-4.47 4.454a.56.56 0 00-.175.388v.002c0 .146.072.283.175.386L6.68 9.84a.552.552 0 00.78 0z"/></g><defs><clipPath id="aclip0"><path fill="#fff" transform="rotate(90 5 5)" d="M0 0h10v10H0z"/></clipPath></defs></svg><svg fill="none" viewBox="0 0 40 40" id="delivery-truck" xmlns="http://www.w3.org/2000/svg"><g clip-path="url(#bclip0)"><path d="M34.094 12.874h-8.26v14.97h13.533v-6.738l-1.578-5.455a3.846 3.846 0 00-3.695-2.777z" fill="#FF7058"/><path d="M37.391 21.037l-1.407-4.863a1.98 1.98 0 00-1.89-1.42h-6.38v6.283h9.677z" fill="#84DBFF"/><path d="M37.393 21.034H27.71v-6.283l9.682 6.283z" fill="#CDD6E0"/><path d="M37.391 21.037l-1.407-4.863a1.98 1.98 0 00-1.89-1.42h-6.38l9.677 6.283z" fill="#F2F2F2"/><path d="M2.5 5.359h20.835a2.5 2.5 0 012.5 2.5v19.984H0V7.859a2.5 2.5 0 012.5-2.5z" fill="#FFD15C"/><path d="M16.932 5.363v6.605l-.967-.966-1.013 1.013-1.012-1.013-1.013 1.013-1.014-1.013-1.026 1.013-1.011-1.013-.978.978V5.363h8.034z" fill="#F2F2F2"/><path d="M40 27.842v2.825H.003v-2.825h4.175a5.717 5.717 0 015-2.933 5.737 5.737 0 015 2.933h13.431a5.702 5.702 0 014.99-2.933 5.727 5.727 0 015 2.933H40z" fill="#334A5E"/><path d="M36.592 30.649a3.992 3.992 0 11-7.985 0 3.992 3.992 0 017.985 0z" fill="#40596B"/><path d="M34.205 30.65a1.603 1.603 0 11-3.207-.001 1.603 1.603 0 013.207 0z" fill="#ACB3BA"/><path d="M13.166 30.649a3.993 3.993 0 11-7.985-.001 3.993 3.993 0 017.985 0z" fill="#40596B"/><path d="M10.777 30.65a1.603 1.603 0 11-3.205 0 1.603 1.603 0 013.205 0z" fill="#ACB3BA"/></g><defs><clipPath id="bclip0"><path fill="#fff" d="M0 0h40v40H0z"/></clipPath></defs></svg><svg viewBox="0 0 45 45" id="dirty-clothes" xmlns="http://www.w3.org/2000/svg"><path d="M7.94 21.591a.703.703 0 00.995 0l3.018-3.018v20.802a.704.704 0 00.703.703h19.688a.703.703 0 00.703-.703V18.573l3.018 3.018a.703.703 0 00.995 0l6.328-6.328a.703.703 0 000-.995l-9.14-9.14a.703.703 0 00-.498-.206h-22.5a.703.703 0 00-.497.206l-9.14 9.14a.703.703 0 000 .995L7.94 21.59zm5.42 1.95a5.43 5.43 0 003.238 1.068h1.549a1.54 1.54 0 011.54 1.542 3.065 3.065 0 001.368 2.559 1.663 1.663 0 01.742 1.386v.994a3.994 3.994 0 01-1.178 2.843 1.763 1.763 0 01-1.255.52 3.177 3.177 0 00-3.018 2.175l-.68 2.044h-2.307v-15.13zm11.25 15.13v-.054a4.16 4.16 0 014.155-4.164 5.537 5.537 0 002.876-.803v5.022h-7.032zm7.03-9.14h-3.746a1.177 1.177 0 01-1.175-1.175 3.334 3.334 0 00-1.853-2.998 1.734 1.734 0 01-.187-2.997 2.995 2.995 0 001.337-2.497.88.88 0 01.88-.88h.785a1.663 1.663 0 011.617 1.262 2.044 2.044 0 001.986 1.55h.357v7.735zM25.946 6.328a3.516 3.516 0 01-6.89 0h6.89zm-14.404 0h6.088a4.92 4.92 0 009.742 0h6.088l8.437 8.438-5.334 5.333-3.721-3.721a.703.703 0 00-1.2.497v3.516h-.357a.64.64 0 01-.622-.486 3.068 3.068 0 00-2.98-2.327h-.787a2.288 2.288 0 00-2.286 2.286 1.59 1.59 0 01-.71 1.327 3.142 3.142 0 00.338 5.425 1.935 1.935 0 011.076 1.74 2.584 2.584 0 002.581 2.581h3.747v1.03l-.573.383a4.139 4.139 0 01-2.303.697 5.565 5.565 0 00-5.562 5.57v.055h-6.055l.532-1.6a1.773 1.773 0 011.684-1.213 3.16 3.16 0 002.25-.931 5.392 5.392 0 001.59-3.838v-.994a3.065 3.065 0 00-1.369-2.556 1.663 1.663 0 01-.741-1.387 2.95 2.95 0 00-2.947-2.95h-1.55a4.025 4.025 0 01-3.238-1.63v-4.698a.703.703 0 00-1.2-.497l-3.721 3.721-5.334-5.333 8.437-8.438z"/><path d="M15.671 18.487l2.11-2.11.994.995-2.11 2.11-.994-.995zM17.78 19.893l2.11-2.109.993.995-2.109 2.109-.994-.995zM22.116 13.95l.78-1.17 2.11 1.406-.78 1.17-2.11-1.407zM24.285 12.59l.628-1.257 1.406.703-.629 1.257-1.405-.703zM7.757 13.898l.704-2.812 1.364.342-.704 2.812-1.364-.342zM10.57 13.195l.705-2.812 1.364.342-.704 2.812-1.364-.342zM33.794 12.89l1.335-.444.702 2.11-1.334.444-.703-2.11zM36.607 12.891l1.335-.444.703 2.11L37.31 15l-.703-2.11z"/></svg><svg fill="none" viewBox="0 0 40 40" id="guarantee" xmlns="http://www.w3.org/2000/svg"><g clip-path="url(#dclip0)"><path d="M7.702 23.243L.234 34.134l7.21-1.344L8.79 40l7.09-10.34-8.177-6.417z" fill="#F57F41"/><path d="M32.295 23.243L24.12 29.66 31.209 40l1.344-7.21 7.21 1.344-7.468-10.89z" fill="#EA623C"/><path d="M19.998 0C11.117 0 3.89 7.227 3.89 16.11c0 8.882 7.226 16.109 16.108 16.109 8.883 0 16.11-7.227 16.11-16.11C36.108 7.227 28.88 0 19.998 0z" fill="#FFE07F"/><path d="M19.998 0v32.219c8.883 0 16.11-7.227 16.11-16.11C36.108 7.227 28.88 0 19.998 0z" fill="#FFD23A"/><path d="M17.127 22.982l-5.5-5.5 1.667-1.667 3.833 3.833 9.576-9.577 1.667 1.667-11.243 11.244z" fill="#1D608B"/><path d="M19.998 20.117l8.372-8.38-1.667-1.666L20 16.776v3.341z" fill="#0D3954"/></g><defs><clipPath id="dclip0"><path fill="#fff" d="M0 0h40v40H0z"/></clipPath></defs></svg><svg fill="none" viewBox="0 0 50 50" id="logo-icon" xmlns="http://www.w3.org/2000/svg"><g clip-path="url(#eclip0)"><path d="M10.345 50H8.62a.862.862 0 01-.862-.862v-1.724h3.448v1.724a.862.862 0 01-.862.862zM41.38 50h-1.725a.862.862 0 01-.862-.862v-1.724h3.448v1.724a.862.862 0 01-.862.862z" fill="#AFB9D2"/><path d="M41.38 48.276H8.62a1.724 1.724 0 01-1.724-1.724V1.724C6.896.772 7.668 0 8.621 0h32.758c.952 0 1.724.772 1.724 1.724v44.828c0 .952-.772 1.724-1.724 1.724z" fill="#E4EAF6"/><path d="M6.896 1.724v8.62h36.207v-8.62C43.103.772 42.331 0 41.38 0H8.621c-.953 0-1.725.772-1.725 1.724z" fill="#D7DEED"/><path d="M21.552 0v5.172a3.448 3.448 0 106.896 0V0h-6.896z" fill="#AFB9D2"/><path d="M25 38.793c7.142 0 12.931-5.79 12.931-12.931 0-7.142-5.79-12.931-12.93-12.931-7.143 0-12.932 5.79-12.932 12.931 0 7.142 5.79 12.931 12.931 12.931z" fill="#C7CFE2"/><path d="M25 6.896a1.724 1.724 0 100-3.448 1.724 1.724 0 000 3.448z" fill="#707487"/><path d="M31.896 6.897a.862.862 0 01-.862-.863V4.31a.862.862 0 011.725 0v1.724a.862.862 0 01-.863.863z" fill="#fff"/><path d="M35.345 6.897a.862.862 0 01-.862-.863V4.31a.862.862 0 011.724 0v1.724a.862.862 0 01-.862.863z" fill="#FFF08C"/><path d="M38.793 6.897a.862.862 0 01-.862-.863V4.31a.862.862 0 011.724 0v1.724a.862.862 0 01-.862.863z" fill="#E4EAF6"/><path d="M25 34.483a8.62 8.62 0 100-17.242 8.62 8.62 0 000 17.242z" fill="#00C8F0"/><path d="M25 19.827c4.32 0 7.888 3.182 8.513 7.328a8.64 8.64 0 00.108-1.293 8.62 8.62 0 10-17.242 0c0 .44.044.87.107 1.293.626-4.146 4.193-7.328 8.514-7.328z" fill="#00AFE1"/><path d="M31.896 39.655h8.621c.476 0 .862.386.862.862v5.173a.862.862 0 01-.862.862h-8.62a.862.862 0 01-.863-.862v-5.173c0-.476.387-.862.863-.862z" fill="#D7DEED"/><path d="M18.103 8.62h-8.62a.862.862 0 01-.862-.861V2.586c0-.476.386-.862.862-.862h8.62c.476 0 .862.386.862.862V7.76a.862.862 0 01-.862.862z" fill="#C7CFE2"/><path d="M15.517 6.896H12.07a.862.862 0 00-.862.863v.862h5.172v-.862a.862.862 0 00-.862-.863z" fill="#AFB9D2"/><path d="M29.31 29.223a.862.862 0 01.616 1.465 6.874 6.874 0 01-1.97 1.406.862.862 0 01-.74-1.557 5.164 5.164 0 001.479-1.055.86.86 0 01.616-.26z" fill="#00EBFF"/><path d="M19.826 28.108c.292 0 .577.15.739.418a5.153 5.153 0 003.695 2.456.861.861 0 11-.244 1.707 6.868 6.868 0 01-4.928-3.273.862.862 0 01.738-1.308z" fill="#00DCFF"/><path d="M25 15.517c-5.713 0-10.345 4.632-10.345 10.345 0 5.713 4.632 10.345 10.345 10.345 5.713 0 10.345-4.632 10.345-10.345 0-5.713-4.632-10.345-10.345-10.345zm0 18.966a8.62 8.62 0 118.239-11.163A1.724 1.724 0 0031.896 25v1.724c0 .821.575 1.506 1.343 1.68a8.624 8.624 0 01-8.24 6.079z" fill="#959CB3"/></g><defs><clipPath id="eclip0"><path fill="#fff" d="M0 0h50v50H0z"/></clipPath></defs></svg><svg fill="none" viewBox="0 0 40 40" id="magnifying-glass" xmlns="http://www.w3.org/2000/svg"><path d="M20 40c11.046 0 20-8.954 20-20S31.046 0 20 0 0 8.954 0 20s8.954 20 20 20z" fill="#FEDD55"/><path d="M40 20c0-2.23-.365-4.375-1.04-6.379l-6.275-6.276-25.37 25.37 6.233 6.22A19.974 19.974 0 0020 40c11.046 0 20-8.954 20-20z" fill="#FCC63D"/><path d="M24.974 23.182a8.126 8.126 0 100-16.252 8.126 8.126 0 000 16.252z" fill="#5EEFEE"/><path d="M30.72 20.802a8.126 8.126 0 01-11.492 0L30.72 9.31a8.126 8.126 0 010 11.492z" fill="#54C9FC"/><path d="M16.282 19.768l3.977 3.977-6.847 6.847-3.977-3.977 6.847-6.847z" fill="#FF807D"/><path d="M11.418 28.607l6.847-6.847 1.988 1.988-6.847 6.848-1.989-1.989z" fill="#FC3E53"/><path d="M17.263 22.767c-4.252-4.252-4.252-11.17 0-15.422 4.252-4.251 11.17-4.251 15.422 0 4.252 4.252 4.252 11.17 0 15.422-4.252 4.251-11.17 4.251-15.422 0zm12.66-12.66a7.006 7.006 0 00-9.898 0 7.006 7.006 0 000 9.898 7.006 7.006 0 009.898 0 7.006 7.006 0 000-9.898z" fill="#776D6B"/><path d="M32.684 7.345l-2.762 2.763c2.729 2.728 2.73 7.168 0 9.896a7.006 7.006 0 01-9.896 0l-2.763 2.762a10.882 10.882 0 002.25 1.729c4.169 2.412 9.607 1.836 13.172-1.729 4.251-4.251 4.25-11.17 0-15.42z" fill="#57555C"/><path d="M7.315 32.715a2.813 2.813 0 010-3.978l2.32-2.32 3.978 3.977-2.32 2.32a2.812 2.812 0 01-3.978 0z" fill="#776D6B"/><path d="M13.613 30.394l-2.32 2.32a2.813 2.813 0 01-3.978 0l4.31-4.308 1.988 1.988z" fill="#57555C"/></svg><svg fill="none" viewBox="0 0 40 40" id="money-bag" xmlns="http://www.w3.org/2000/svg"><g clip-path="url(#gclip0)"><path d="M17.976 7.36a.602.602 0 01-.487-.246c-.549-.746-1.525-1.601-3.062-1.437-1.81.192-3.153-.383-3.962-.9a.604.604 0 01.65-1.018c.646.413 1.723.873 3.184.717 2.218-.235 3.56 1.103 4.163 1.922a.604.604 0 01-.486.962z" fill="#FFD064"/><path d="M11.657 10.565a.603.603 0 01-.514-.92c.774-1.26 2.191-2.126 4.1-2.504 1.392-.276 2.56-.2 2.609-.197a.603.603 0 01-.082 1.204c-.042-.003-4.14-.246-5.598 2.13a.603.603 0 01-.515.287z" fill="#FFD064"/><path d="M20.755 33.694c9.912 0 15.393-14.54-.26-25.77-.39-.28-.62-.73-.615-1.209.004-.396.13-.78.357-1.105.732-1.046 1.787-2.836 2.42-4.278.151-.345-.066-.717-.47-.717-.941 0-.941-.615-1.881-.615-.94 0-.94.615-1.88.615-.802 0-1.13-.69-1.52-.188C15.77 1.89 19.66 7.031 19.66 7.031 2.475 18.33 8.016 33.694 18.163 33.694h2.592z" fill="#EABC6B"/><path d="M24.652 7.031S28.6 1.906 27.465.436c-.387-.501-.717.18-1.517.18-.94 0-.94-.616-1.881-.616-.94 0-.94.615-1.88.615-.047 0-.09-.002-.131-.005-.378 1.62-2.08 4.142-3.055 5.493.384.563.66.928.66.928-.23.151-.454.303-.675.455 16.42 11.286 10.926 26.207.884 26.207h6.34c10.177 0 15.684-15.326-1.558-26.662z" fill="#E8AE4D"/><path d="M25.386 8.854c-2.295.58-4.562.58-6.857 0-.799-.201-1.251-1.1-.964-1.916l.01-.027c.24-.685.924-1.07 1.594-.9 1.88.47 3.697.47 5.577 0 .67-.17 1.353.215 1.594.9l.01.027c.287.816-.165 1.715-.964 1.916z" fill="#FFE07D"/><path d="M3.81 36.33l8.74 3.252a6.649 6.649 0 002.32.418h9.005a6.65 6.65 0 003.56-1.033l11.276-7.145a1.98 1.98 0 00.322-2.593c-.612-.9-1.626-1.057-2.74-.53l-10.979 4.834.013-1.78a3.188 3.188 0 00-2.726-2.842l-6.685-.77c-1.543-.218-2.313-.735-3.658-1.521a11.982 11.982 0 00-6.05-1.64H3.81v11.35z" fill="#FFDDCE"/><path d="M12.019 37.85c.78.29 1.606.438 2.438.438h9.468c1.008 0 2-.218 2.91-.634l6.62-4.196c.615-.39 1.006-1.068.986-1.796a2.073 2.073 0 00-.36-1.112l-.409-.697-8.358 3.68.013-1.78a3.188 3.188 0 00-2.726-2.842l-6.685-.77c-1.543-.218-2.313-.735-3.658-1.521a11.982 11.982 0 00-6.05-1.64H3.81v9.814l8.208 3.055z" fill="#FFDDCE"/><path d="M39.033 29.229c-.613-.9-1.626-1.057-2.74-.53l-3.02 1.33.262.416a1.98 1.98 0 01-.322 2.594l-6.57 4.163a6.648 6.648 0 01-2.768.604h-9.006a6.651 6.651 0 01-2.32-.418l-8.738-3.252v2.194l8.739 3.252a6.65 6.65 0 002.32.418h9.005a6.65 6.65 0 003.56-1.033l11.276-7.145a1.98 1.98 0 00.322-2.593z" fill="#FFCBBE"/><path d="M24.507 29.917v.043l.028-.012-.028-.03z" fill="#F5DBCC"/><path d="M25.314 33.532h-6.826a.604.604 0 010-1.207h6.835l-.009 1.207z" fill="#FFCBBE"/><path d="M5.691 38.07c0 .634-.514 1.148-1.148 1.148h-2.77A1.148 1.148 0 01.623 38.07V24.013c0-.634.514-1.148 1.148-1.148h2.771c.634 0 1.148.514 1.148 1.148V38.07z" fill="#407093"/><path d="M23.486 18.705a29.75 29.75 0 01-.766-.281v-3.849c.714.119 1.143.488 1.174.516a.603.603 0 00.815-.89c-.042-.04-.781-.706-1.989-.845v-.858a.604.604 0 10-1.207 0v.907a4.47 4.47 0 00-.448.11c-1.024.308-1.79 1.186-1.997 2.29-.19 1.003.129 1.967.83 2.517.401.315.908.604 1.615.913v4.774c-.699-.03-1.128-.161-1.877-.652a.604.604 0 00-.661 1.01c.985.645 1.644.813 2.538.848v.958a.604.604 0 101.207 0v-1c1.695-.275 2.683-1.647 2.898-2.926.27-1.599-.568-2.989-2.132-3.542zm-2.844-1.333c-.344-.27-.493-.785-.388-1.343.098-.517.453-1.146 1.16-1.358.033-.01.066-.02.1-.028v3.26a5.09 5.09 0 01-.872-.531zm3.786 4.675c-.133.792-.715 1.637-1.708 1.892v-4.226l.363.13c1.502.531 1.41 1.82 1.345 2.204z" fill="#fff"/></g><defs><clipPath id="gclip0"><path fill="#fff" d="M0 0h40v40H0z"/></clipPath></defs></svg><svg viewBox="0 0 15 15" id="phone" xmlns="http://www.w3.org/2000/svg"><g clip-path="url(#hclip0)"><path d="M14.592 11.008l-2.093-2.093c-.748-.747-2.019-.448-2.318.524-.224.672-.972 1.046-1.645.897-1.495-.374-3.513-2.318-3.887-3.888-.225-.673.224-1.42.897-1.645.972-.299 1.27-1.57.523-2.317L3.976.392C3.378-.13 2.48-.13 1.957.392l-1.42 1.42C-.883 3.309.687 7.27 4.2 10.785c3.514 3.514 7.476 5.159 8.971 3.663l1.42-1.42c.524-.598.524-1.495 0-2.018z"/></g><defs><clipPath id="hclip0"><path fill="#fff" d="M0 0h15v15H0z"/></clipPath></defs></svg></svg>