<?xml version="1.0" encoding="utf-8"?><svg viewBox="0 0 50 50" xmlns="http://www.w3.org/2000/svg" xmlns:xlink="http://www.w3.org/1999/xlink"><style>:root>svg{display:none}:root>svg:target{display:block}</style><svg fill="none" viewBox="0 0 50 50" id="logo-icon" xmlns="http://www.w3.org/2000/svg"><g clip-path="url(#aclip0)"><path d="M10.345 50H8.62a.862.862 0 01-.862-.862v-1.724h3.448v1.724a.862.862 0 01-.862.862zM41.38 50h-1.725a.862.862 0 01-.862-.862v-1.724h3.448v1.724a.862.862 0 01-.862.862z" fill="#AFB9D2"/><path d="M41.38 48.276H8.62a1.724 1.724 0 01-1.724-1.724V1.724C6.896.772 7.668 0 8.621 0h32.758c.952 0 1.724.772 1.724 1.724v44.828c0 .952-.772 1.724-1.724 1.724z" fill="#E4EAF6"/><path d="M6.896 1.724v8.62h36.207v-8.62C43.103.772 42.331 0 41.38 0H8.621c-.953 0-1.725.772-1.725 1.724z" fill="#D7DEED"/><path d="M21.552 0v5.172a3.448 3.448 0 106.896 0V0h-6.896z" fill="#AFB9D2"/><path d="M25 38.793c7.142 0 12.931-5.79 12.931-12.931 0-7.142-5.79-12.931-12.93-12.931-7.143 0-12.932 5.79-12.932 12.931 0 7.142 5.79 12.931 12.931 12.931z" fill="#C7CFE2"/><path d="M25 6.896a1.724 1.724 0 100-3.448 1.724 1.724 0 000 3.448z" fill="#707487"/><path d="M31.896 6.897a.862.862 0 01-.862-.863V4.31a.862.862 0 011.725 0v1.724a.862.862 0 01-.863.863z" fill="#fff"/><path d="M35.345 6.897a.862.862 0 01-.862-.863V4.31a.862.862 0 011.724 0v1.724a.862.862 0 01-.862.863z" fill="#FFF08C"/><path d="M38.793 6.897a.862.862 0 01-.862-.863V4.31a.862.862 0 011.724 0v1.724a.862.862 0 01-.862.863z" fill="#E4EAF6"/><path d="M25 34.483a8.62 8.62 0 100-17.242 8.62 8.62 0 000 17.242z" fill="#00C8F0"/><path d="M25 19.827c4.32 0 7.888 3.182 8.513 7.328a8.64 8.64 0 00.108-1.293 8.62 8.62 0 10-17.242 0c0 .44.044.87.107 1.293.626-4.146 4.193-7.328 8.514-7.328z" fill="#00AFE1"/><path d="M31.896 39.655h8.621c.476 0 .862.386.862.862v5.173a.862.862 0 01-.862.862h-8.62a.862.862 0 01-.863-.862v-5.173c0-.476.387-.862.863-.862z" fill="#D7DEED"/><path d="M18.103 8.62h-8.62a.862.862 0 01-.862-.861V2.586c0-.476.386-.862.862-.862h8.62c.476 0 .862.386.862.862V7.76a.862.862 0 01-.862.862z" fill="#C7CFE2"/><path d="M15.517 6.896H12.07a.862.862 0 00-.862.863v.862h5.172v-.862a.862.862 0 00-.862-.863z" fill="#AFB9D2"/><path d="M29.31 29.223a.862.862 0 01.616 1.465 6.874 6.874 0 01-1.97 1.406.862.862 0 01-.74-1.557 5.164 5.164 0 001.479-1.055.86.86 0 01.616-.26z" fill="#00EBFF"/><path d="M19.826 28.108c.292 0 .577.15.739.418a5.153 5.153 0 003.695 2.456.861.861 0 11-.244 1.707 6.868 6.868 0 01-4.928-3.273.862.862 0 01.738-1.308z" fill="#00DCFF"/><path d="M25 15.517c-5.713 0-10.345 4.632-10.345 10.345 0 5.713 4.632 10.345 10.345 10.345 5.713 0 10.345-4.632 10.345-10.345 0-5.713-4.632-10.345-10.345-10.345zm0 18.966a8.62 8.62 0 118.239-11.163A1.724 1.724 0 0031.896 25v1.724c0 .821.575 1.506 1.343 1.68a8.624 8.624 0 01-8.24 6.079z" fill="#959CB3"/></g><defs><clipPath id="aclip0"><path fill="#fff" d="M0 0h50v50H0z"/></clipPath></defs></svg><svg viewBox="0 0 15 15" id="phone" xmlns="http://www.w3.org/2000/svg"><g clip-path="url(#bclip0)"><path d="M14.592 11.008l-2.093-2.093c-.748-.747-2.019-.448-2.318.524-.224.672-.972 1.046-1.645.897-1.495-.374-3.513-2.318-3.887-3.888-.225-.673.224-1.42.897-1.645.972-.299 1.27-1.57.523-2.317L3.976.392C3.378-.13 2.48-.13 1.957.392l-1.42 1.42C-.883 3.309.687 7.27 4.2 10.785c3.514 3.514 7.476 5.159 8.971 3.663l1.42-1.42c.524-.598.524-1.495 0-2.018z"/></g><defs><clipPath id="bclip0"><path fill="#fff" d="M0 0h15v15H0z"/></clipPath></defs></svg></svg>