<?xml version="1.0" encoding="utf-8"?><svg viewBox="0 0 85 86" xmlns="http://www.w3.org/2000/svg" xmlns:xlink="http://www.w3.org/1999/xlink"><style>:root>svg{display:none}:root>svg:target{display:block}</style><svg viewBox="0 0 10 10" id="arrow" xmlns="http://www.w3.org/2000/svg"><g clip-path="url(#aclip0)"><path d="M7.46 9.84l.33-.327a.543.543 0 00.16-.387.543.543 0 00-.16-.387L4.052 5.002l3.74-3.74a.543.543 0 00.16-.387.543.543 0 00-.16-.387L7.466.16a.548.548 0 00-.774 0l-4.47 4.454a.56.56 0 00-.175.388v.002c0 .146.072.283.175.386L6.68 9.84a.552.552 0 00.78 0z"/></g><defs><clipPath id="aclip0"><path fill="#fff" transform="rotate(90 5 5)" d="M0 0h10v10H0z"/></clipPath></defs></svg><svg viewBox="0 0 15 15" id="clock" xmlns="http://www.w3.org/2000/svg"><path d="M12.803 2.197A7.45 7.45 0 007.5 0C5.497 0 3.613.78 2.197 2.197A7.45 7.45 0 000 7.5a7.45 7.45 0 002.197 5.303A7.451 7.451 0 007.5 15a7.45 7.45 0 005.303-2.197A7.45 7.45 0 0015 7.5a7.45 7.45 0 00-2.197-5.303zM7.5 13.527A6.035 6.035 0 011.472 7.5v-.016-.004-.007a6.034 6.034 0 015.946-6H7.5A6.035 6.035 0 0113.528 7.5 6.035 6.035 0 017.5 13.528z"/><path d="M12.079 7.862a.444.444 0 110-.888h.535a5.149 5.149 0 00-4.732-4.6v.465a.444.444 0 11-.887 0v-.455A5.149 5.149 0 002.38 7.036h.479a.444.444 0 110 .887h-.483a5.148 5.148 0 004.68 4.698v-.563a.444.444 0 01.887 0v.563a5.148 5.148 0 004.683-4.759h-.548zM9.296 6.331L7.814 7.814a.444.444 0 01-.628 0l-2.58-2.581a.444.444 0 11.627-.628L7.5 6.872 8.67 5.703a.444.444 0 11.627.628z"/></svg><svg fill="none" viewBox="0 0 50 50" id="delivery" xmlns="http://www.w3.org/2000/svg"><path d="M7.168 44.346a1.605 1.605 0 103.21 0 1.605 1.605 0 00-3.21 0zm2.038 0a.433.433 0 11-.865 0 .433.433 0 01.865 0z" fill="#000"/><path d="M44.123 2.96a.584.584 0 00-.525-.323H17.281a.584.584 0 00-.525.323l-3.424 6.915a.592.592 0 00-.148.391v20.76a3.805 3.805 0 00-1.83 2.978c-.327.25-.696.44-1.09.562l-.002-.014a.938.938 0 00-.891-.665H3.25a.937.937 0 00-.9 1.188l3.234 11.607a.934.934 0 00.9.681h6.475a.93.93 0 00.893-1.202l-.843-2.763 3.053-1.93a1.772 1.772 0 011.289-.165.597.597 0 00.053.01l5.39.834a6.442 6.442 0 004.452-.936l10.557-6.738h9.293a.559.559 0 00.56-.56V10.46a.584.584 0 00-.035-.434L44.124 2.96zm-13.068.849h12.18l2.903 5.859H31.055v-5.86zm-.616 7.063c.065 0 .129-.011.19-.032h3.941v4.2h-7.91v-4.2h3.59c.061.02.125.031.19.032zM6.665 46.192l-3.1-11.133H9.18l3.418 11.132H6.665zm19.952-5.95a5.266 5.266 0 01-3.643.757l-5.364-.835a2.94 2.94 0 00-2.132.291l-.027.015-2.799 1.769-2.04-6.565a4.717 4.717 0 001.707-.971.54.54 0 00.197-.416 2.651 2.651 0 012.668-2.646h.183a3.845 3.845 0 002.975-1.435l2.321-2.857a1.425 1.425 0 011.907-.288l.039.023a1.496 1.496 0 01.508 1.91l-2.308 4.59a.624.624 0 00.236.803.606.606 0 00.288.086h14.356l-9.072 5.77zm.336-6.941v-5.596l.388.405a.589.589 0 00.845.007l1.022-1.041 1.009 1.04a.587.587 0 00.84 0l1.01-1.04 1.021 1.041a.592.592 0 00.423.176.545.545 0 00.4-.182l.366-.406v5.596h-7.324zm19.531 0H35.45v-7.065a.565.565 0 00-.981-.403l-.973 1.03-1.014-1.02a.566.566 0 00-.416-.16h-.002a.57.57 0 00-.419.162l-1.006 1.029-1.006-1.025a.573.573 0 00-.419-.165h-.001a.57.57 0 00-.418.159l-1.017 1.028-.978-1.034a.589.589 0 00-1.018.4V33.3h-3.498a663.71 663.71 0 011.88-3.762 2.686 2.686 0 00-.9-3.42l-.04-.031a2.59 2.59 0 00-3.468.512l-2.321 2.867a2.677 2.677 0 01-2.067 1.002h-.183c-.278 0-.556.03-.829.09v-19.72h3.614a.586.586 0 100-1.171h-3.227l2.903-5.86h12.238v5.86h-8.008a.586.586 0 000 1.172h3.613v4.764a.602.602 0 00.584.607h9.13c.324 0 .54-.283.54-.607V10.84h10.742V33.3z" fill="#000"/><path d="M17.188 13.063a.586.586 0 00-.586.586v.615a.586.586 0 101.171 0v-.615a.586.586 0 00-.585-.586zM17.188 15.533a.586.586 0 00-.586.586v6.445a.586.586 0 101.171 0V16.12a.586.586 0 00-.585-.586z" fill="#000"/></svg><svg fill="none" viewBox="0 0 40 40" id="delivery-truck" xmlns="http://www.w3.org/2000/svg"><g clip-path="url(#dclip0)"><path d="M34.094 12.874h-8.26v14.97h13.533v-6.738l-1.578-5.455a3.846 3.846 0 00-3.695-2.777z" fill="#FF7058"/><path d="M37.391 21.037l-1.407-4.863a1.98 1.98 0 00-1.89-1.42h-6.38v6.283h9.677z" fill="#84DBFF"/><path d="M37.393 21.034H27.71v-6.283l9.682 6.283z" fill="#CDD6E0"/><path d="M37.391 21.037l-1.407-4.863a1.98 1.98 0 00-1.89-1.42h-6.38l9.677 6.283z" fill="#F2F2F2"/><path d="M2.5 5.359h20.835a2.5 2.5 0 012.5 2.5v19.984H0V7.859a2.5 2.5 0 012.5-2.5z" fill="#FFD15C"/><path d="M16.932 5.363v6.605l-.967-.966-1.013 1.013-1.012-1.013-1.013 1.013-1.014-1.013-1.026 1.013-1.011-1.013-.978.978V5.363h8.034z" fill="#F2F2F2"/><path d="M40 27.842v2.825H.003v-2.825h4.175a5.717 5.717 0 015-2.933 5.737 5.737 0 015 2.933h13.431a5.702 5.702 0 014.99-2.933 5.727 5.727 0 015 2.933H40z" fill="#334A5E"/><path d="M36.592 30.649a3.992 3.992 0 11-7.985 0 3.992 3.992 0 017.985 0z" fill="#40596B"/><path d="M34.205 30.65a1.603 1.603 0 11-3.207-.001 1.603 1.603 0 013.207 0z" fill="#ACB3BA"/><path d="M13.166 30.649a3.993 3.993 0 11-7.985-.001 3.993 3.993 0 017.985 0z" fill="#40596B"/><path d="M10.777 30.65a1.603 1.603 0 11-3.205 0 1.603 1.603 0 013.205 0z" fill="#ACB3BA"/></g><defs><clipPath id="dclip0"><path fill="#fff" d="M0 0h40v40H0z"/></clipPath></defs></svg><svg viewBox="0 0 45 45" id="dirty-clothes" xmlns="http://www.w3.org/2000/svg"><path d="M7.94 21.591a.703.703 0 00.995 0l3.018-3.018v20.802a.704.704 0 00.703.703h19.688a.703.703 0 00.703-.703V18.573l3.018 3.018a.703.703 0 00.995 0l6.328-6.328a.703.703 0 000-.995l-9.14-9.14a.703.703 0 00-.498-.206h-22.5a.703.703 0 00-.497.206l-9.14 9.14a.703.703 0 000 .995L7.94 21.59zm5.42 1.95a5.43 5.43 0 003.238 1.068h1.549a1.54 1.54 0 011.54 1.542 3.065 3.065 0 001.368 2.559 1.663 1.663 0 01.742 1.386v.994a3.994 3.994 0 01-1.178 2.843 1.763 1.763 0 01-1.255.52 3.177 3.177 0 00-3.018 2.175l-.68 2.044h-2.307v-15.13zm11.25 15.13v-.054a4.16 4.16 0 014.155-4.164 5.537 5.537 0 002.876-.803v5.022h-7.032zm7.03-9.14h-3.746a1.177 1.177 0 01-1.175-1.175 3.334 3.334 0 00-1.853-2.998 1.734 1.734 0 01-.187-2.997 2.995 2.995 0 001.337-2.497.88.88 0 01.88-.88h.785a1.663 1.663 0 011.617 1.262 2.044 2.044 0 001.986 1.55h.357v7.735zM25.946 6.328a3.516 3.516 0 01-6.89 0h6.89zm-14.404 0h6.088a4.92 4.92 0 009.742 0h6.088l8.437 8.438-5.334 5.333-3.721-3.721a.703.703 0 00-1.2.497v3.516h-.357a.64.64 0 01-.622-.486 3.068 3.068 0 00-2.98-2.327h-.787a2.288 2.288 0 00-2.286 2.286 1.59 1.59 0 01-.71 1.327 3.142 3.142 0 00.338 5.425 1.935 1.935 0 011.076 1.74 2.584 2.584 0 002.581 2.581h3.747v1.03l-.573.383a4.139 4.139 0 01-2.303.697 5.565 5.565 0 00-5.562 5.57v.055h-6.055l.532-1.6a1.773 1.773 0 011.684-1.213 3.16 3.16 0 002.25-.931 5.392 5.392 0 001.59-3.838v-.994a3.065 3.065 0 00-1.369-2.556 1.663 1.663 0 01-.741-1.387 2.95 2.95 0 00-2.947-2.95h-1.55a4.025 4.025 0 01-3.238-1.63v-4.698a.703.703 0 00-1.2-.497l-3.721 3.721-5.334-5.333 8.437-8.438z"/><path d="M15.671 18.487l2.11-2.11.994.995-2.11 2.11-.994-.995zM17.78 19.893l2.11-2.109.993.995-2.109 2.109-.994-.995zM22.116 13.95l.78-1.17 2.11 1.406-.78 1.17-2.11-1.407zM24.285 12.59l.628-1.257 1.406.703-.629 1.257-1.405-.703zM7.757 13.898l.704-2.812 1.364.342-.704 2.812-1.364-.342zM10.57 13.195l.705-2.812 1.364.342-.704 2.812-1.364-.342zM33.794 12.89l1.335-.444.702 2.11-1.334.444-.703-2.11zM36.607 12.891l1.335-.444.703 2.11L37.31 15l-.703-2.11z"/></svg><svg fill="none" viewBox="0 0 40 40" id="guarantee" xmlns="http://www.w3.org/2000/svg"><g clip-path="url(#fclip0)"><path d="M7.702 23.243L.234 34.134l7.21-1.344L8.79 40l7.09-10.34-8.177-6.417z" fill="#F57F41"/><path d="M32.295 23.243L24.12 29.66 31.209 40l1.344-7.21 7.21 1.344-7.468-10.89z" fill="#EA623C"/><path d="M19.998 0C11.117 0 3.89 7.227 3.89 16.11c0 8.882 7.226 16.109 16.108 16.109 8.883 0 16.11-7.227 16.11-16.11C36.108 7.227 28.88 0 19.998 0z" fill="#FFE07F"/><path d="M19.998 0v32.219c8.883 0 16.11-7.227 16.11-16.11C36.108 7.227 28.88 0 19.998 0z" fill="#FFD23A"/><path d="M17.127 22.982l-5.5-5.5 1.667-1.667 3.833 3.833 9.576-9.577 1.667 1.667-11.243 11.244z" fill="#1D608B"/><path d="M19.998 20.117l8.372-8.38-1.667-1.666L20 16.776v3.341z" fill="#0D3954"/></g><defs><clipPath id="fclip0"><path fill="#fff" d="M0 0h40v40H0z"/></clipPath></defs></svg><svg fill="none" viewBox="0 0 50 50" id="logo-icon" xmlns="http://www.w3.org/2000/svg"><g clip-path="url(#gclip0)"><path d="M10.345 50H8.62a.862.862 0 01-.862-.862v-1.724h3.448v1.724a.862.862 0 01-.862.862zM41.38 50h-1.725a.862.862 0 01-.862-.862v-1.724h3.448v1.724a.862.862 0 01-.862.862z" fill="#AFB9D2"/><path d="M41.38 48.276H8.62a1.724 1.724 0 01-1.724-1.724V1.724C6.896.772 7.668 0 8.621 0h32.758c.952 0 1.724.772 1.724 1.724v44.828c0 .952-.772 1.724-1.724 1.724z" fill="#E4EAF6"/><path d="M6.896 1.724v8.62h36.207v-8.62C43.103.772 42.331 0 41.38 0H8.621c-.953 0-1.725.772-1.725 1.724z" fill="#D7DEED"/><path d="M21.552 0v5.172a3.448 3.448 0 106.896 0V0h-6.896z" fill="#AFB9D2"/><path d="M25 38.793c7.142 0 12.931-5.79 12.931-12.931 0-7.142-5.79-12.931-12.93-12.931-7.143 0-12.932 5.79-12.932 12.931 0 7.142 5.79 12.931 12.931 12.931z" fill="#C7CFE2"/><path d="M25 6.896a1.724 1.724 0 100-3.448 1.724 1.724 0 000 3.448z" fill="#707487"/><path d="M31.896 6.897a.862.862 0 01-.862-.863V4.31a.862.862 0 011.725 0v1.724a.862.862 0 01-.863.863z" fill="#fff"/><path d="M35.345 6.897a.862.862 0 01-.862-.863V4.31a.862.862 0 011.724 0v1.724a.862.862 0 01-.862.863z" fill="#FFF08C"/><path d="M38.793 6.897a.862.862 0 01-.862-.863V4.31a.862.862 0 011.724 0v1.724a.862.862 0 01-.862.863z" fill="#E4EAF6"/><path d="M25 34.483a8.62 8.62 0 100-17.242 8.62 8.62 0 000 17.242z" fill="#00C8F0"/><path d="M25 19.827c4.32 0 7.888 3.182 8.513 7.328a8.64 8.64 0 00.108-1.293 8.62 8.62 0 10-17.242 0c0 .44.044.87.107 1.293.626-4.146 4.193-7.328 8.514-7.328z" fill="#00AFE1"/><path d="M31.896 39.655h8.621c.476 0 .862.386.862.862v5.173a.862.862 0 01-.862.862h-8.62a.862.862 0 01-.863-.862v-5.173c0-.476.387-.862.863-.862z" fill="#D7DEED"/><path d="M18.103 8.62h-8.62a.862.862 0 01-.862-.861V2.586c0-.476.386-.862.862-.862h8.62c.476 0 .862.386.862.862V7.76a.862.862 0 01-.862.862z" fill="#C7CFE2"/><path d="M15.517 6.896H12.07a.862.862 0 00-.862.863v.862h5.172v-.862a.862.862 0 00-.862-.863z" fill="#AFB9D2"/><path d="M29.31 29.223a.862.862 0 01.616 1.465 6.874 6.874 0 01-1.97 1.406.862.862 0 01-.74-1.557 5.164 5.164 0 001.479-1.055.86.86 0 01.616-.26z" fill="#00EBFF"/><path d="M19.826 28.108c.292 0 .577.15.739.418a5.153 5.153 0 003.695 2.456.861.861 0 11-.244 1.707 6.868 6.868 0 01-4.928-3.273.862.862 0 01.738-1.308z" fill="#00DCFF"/><path d="M25 15.517c-5.713 0-10.345 4.632-10.345 10.345 0 5.713 4.632 10.345 10.345 10.345 5.713 0 10.345-4.632 10.345-10.345 0-5.713-4.632-10.345-10.345-10.345zm0 18.966a8.62 8.62 0 118.239-11.163A1.724 1.724 0 0031.896 25v1.724c0 .821.575 1.506 1.343 1.68a8.624 8.624 0 01-8.24 6.079z" fill="#959CB3"/></g><defs><clipPath id="gclip0"><path fill="#fff" d="M0 0h50v50H0z"/></clipPath></defs></svg><svg fill="none" viewBox="0 0 40 40" id="magnifying-glass" xmlns="http://www.w3.org/2000/svg"><path d="M20 40c11.046 0 20-8.954 20-20S31.046 0 20 0 0 8.954 0 20s8.954 20 20 20z" fill="#FEDD55"/><path d="M40 20c0-2.23-.365-4.375-1.04-6.379l-6.275-6.276-25.37 25.37 6.233 6.22A19.974 19.974 0 0020 40c11.046 0 20-8.954 20-20z" fill="#FCC63D"/><path d="M24.974 23.182a8.126 8.126 0 100-16.252 8.126 8.126 0 000 16.252z" fill="#5EEFEE"/><path d="M30.72 20.802a8.126 8.126 0 01-11.492 0L30.72 9.31a8.126 8.126 0 010 11.492z" fill="#54C9FC"/><path d="M16.282 19.768l3.977 3.977-6.847 6.847-3.977-3.977 6.847-6.847z" fill="#FF807D"/><path d="M11.418 28.607l6.847-6.847 1.988 1.988-6.847 6.848-1.989-1.989z" fill="#FC3E53"/><path d="M17.263 22.767c-4.252-4.252-4.252-11.17 0-15.422 4.252-4.251 11.17-4.251 15.422 0 4.252 4.252 4.252 11.17 0 15.422-4.252 4.251-11.17 4.251-15.422 0zm12.66-12.66a7.006 7.006 0 00-9.898 0 7.006 7.006 0 000 9.898 7.006 7.006 0 009.898 0 7.006 7.006 0 000-9.898z" fill="#776D6B"/><path d="M32.684 7.345l-2.762 2.763c2.729 2.728 2.73 7.168 0 9.896a7.006 7.006 0 01-9.896 0l-2.763 2.762a10.882 10.882 0 002.25 1.729c4.169 2.412 9.607 1.836 13.172-1.729 4.251-4.251 4.25-11.17 0-15.42z" fill="#57555C"/><path d="M7.315 32.715a2.813 2.813 0 010-3.978l2.32-2.32 3.978 3.977-2.32 2.32a2.812 2.812 0 01-3.978 0z" fill="#776D6B"/><path d="M13.613 30.394l-2.32 2.32a2.813 2.813 0 01-3.978 0l4.31-4.308 1.988 1.988z" fill="#57555C"/></svg><svg fill="none" viewBox="0 0 40 40" id="money-bag" xmlns="http://www.w3.org/2000/svg"><g clip-path="url(#iclip0)"><path d="M17.976 7.36a.602.602 0 01-.487-.246c-.549-.746-1.525-1.601-3.062-1.437-1.81.192-3.153-.383-3.962-.9a.604.604 0 01.65-1.018c.646.413 1.723.873 3.184.717 2.218-.235 3.56 1.103 4.163 1.922a.604.604 0 01-.486.962z" fill="#FFD064"/><path d="M11.657 10.565a.603.603 0 01-.514-.92c.774-1.26 2.191-2.126 4.1-2.504 1.392-.276 2.56-.2 2.609-.197a.603.603 0 01-.082 1.204c-.042-.003-4.14-.246-5.598 2.13a.603.603 0 01-.515.287z" fill="#FFD064"/><path d="M20.755 33.694c9.912 0 15.393-14.54-.26-25.77-.39-.28-.62-.73-.615-1.209.004-.396.13-.78.357-1.105.732-1.046 1.787-2.836 2.42-4.278.151-.345-.066-.717-.47-.717-.941 0-.941-.615-1.881-.615-.94 0-.94.615-1.88.615-.802 0-1.13-.69-1.52-.188C15.77 1.89 19.66 7.031 19.66 7.031 2.475 18.33 8.016 33.694 18.163 33.694h2.592z" fill="#EABC6B"/><path d="M24.652 7.031S28.6 1.906 27.465.436c-.387-.501-.717.18-1.517.18-.94 0-.94-.616-1.881-.616-.94 0-.94.615-1.88.615-.047 0-.09-.002-.131-.005-.378 1.62-2.08 4.142-3.055 5.493.384.563.66.928.66.928-.23.151-.454.303-.675.455 16.42 11.286 10.926 26.207.884 26.207h6.34c10.177 0 15.684-15.326-1.558-26.662z" fill="#E8AE4D"/><path d="M25.386 8.854c-2.295.58-4.562.58-6.857 0-.799-.201-1.251-1.1-.964-1.916l.01-.027c.24-.685.924-1.07 1.594-.9 1.88.47 3.697.47 5.577 0 .67-.17 1.353.215 1.594.9l.01.027c.287.816-.165 1.715-.964 1.916z" fill="#FFE07D"/><path d="M3.81 36.33l8.74 3.252a6.649 6.649 0 002.32.418h9.005a6.65 6.65 0 003.56-1.033l11.276-7.145a1.98 1.98 0 00.322-2.593c-.612-.9-1.626-1.057-2.74-.53l-10.979 4.834.013-1.78a3.188 3.188 0 00-2.726-2.842l-6.685-.77c-1.543-.218-2.313-.735-3.658-1.521a11.982 11.982 0 00-6.05-1.64H3.81v11.35z" fill="#FFDDCE"/><path d="M12.019 37.85c.78.29 1.606.438 2.438.438h9.468c1.008 0 2-.218 2.91-.634l6.62-4.196c.615-.39 1.006-1.068.986-1.796a2.073 2.073 0 00-.36-1.112l-.409-.697-8.358 3.68.013-1.78a3.188 3.188 0 00-2.726-2.842l-6.685-.77c-1.543-.218-2.313-.735-3.658-1.521a11.982 11.982 0 00-6.05-1.64H3.81v9.814l8.208 3.055z" fill="#FFDDCE"/><path d="M39.033 29.229c-.613-.9-1.626-1.057-2.74-.53l-3.02 1.33.262.416a1.98 1.98 0 01-.322 2.594l-6.57 4.163a6.648 6.648 0 01-2.768.604h-9.006a6.651 6.651 0 01-2.32-.418l-8.738-3.252v2.194l8.739 3.252a6.65 6.65 0 002.32.418h9.005a6.65 6.65 0 003.56-1.033l11.276-7.145a1.98 1.98 0 00.322-2.593z" fill="#FFCBBE"/><path d="M24.507 29.917v.043l.028-.012-.028-.03z" fill="#F5DBCC"/><path d="M25.314 33.532h-6.826a.604.604 0 010-1.207h6.835l-.009 1.207z" fill="#FFCBBE"/><path d="M5.691 38.07c0 .634-.514 1.148-1.148 1.148h-2.77A1.148 1.148 0 01.623 38.07V24.013c0-.634.514-1.148 1.148-1.148h2.771c.634 0 1.148.514 1.148 1.148V38.07z" fill="#407093"/><path d="M23.486 18.705a29.75 29.75 0 01-.766-.281v-3.849c.714.119 1.143.488 1.174.516a.603.603 0 00.815-.89c-.042-.04-.781-.706-1.989-.845v-.858a.604.604 0 10-1.207 0v.907a4.47 4.47 0 00-.448.11c-1.024.308-1.79 1.186-1.997 2.29-.19 1.003.129 1.967.83 2.517.401.315.908.604 1.615.913v4.774c-.699-.03-1.128-.161-1.877-.652a.604.604 0 00-.661 1.01c.985.645 1.644.813 2.538.848v.958a.604.604 0 101.207 0v-1c1.695-.275 2.683-1.647 2.898-2.926.27-1.599-.568-2.989-2.132-3.542zm-2.844-1.333c-.344-.27-.493-.785-.388-1.343.098-.517.453-1.146 1.16-1.358.033-.01.066-.02.1-.028v3.26a5.09 5.09 0 01-.872-.531zm3.786 4.675c-.133.792-.715 1.637-1.708 1.892v-4.226l.363.13c1.502.531 1.41 1.82 1.345 2.204z" fill="#fff"/></g><defs><clipPath id="iclip0"><path fill="#fff" d="M0 0h40v40H0z"/></clipPath></defs></svg><svg viewBox="0 0 15 15" id="phone" xmlns="http://www.w3.org/2000/svg"><g clip-path="url(#jclip0)"><path d="M14.592 11.008l-2.093-2.093c-.748-.747-2.019-.448-2.318.524-.224.672-.972 1.046-1.645.897-1.495-.374-3.513-2.318-3.887-3.888-.225-.673.224-1.42.897-1.645.972-.299 1.27-1.57.523-2.317L3.976.392C3.378-.13 2.48-.13 1.957.392l-1.42 1.42C-.883 3.309.687 7.27 4.2 10.785c3.514 3.514 7.476 5.159 8.971 3.663l1.42-1.42c.524-.598.524-1.495 0-2.018z"/></g><defs><clipPath id="jclip0"><path fill="#fff" d="M0 0h15v15H0z"/></clipPath></defs></svg><svg viewBox="0 0 15 15" id="placeholder" xmlns="http://www.w3.org/2000/svg"><path d="M7.5 0a5.664 5.664 0 00-5.658 5.658c0 4.491 5.05 9.004 5.266 9.194a.593.593 0 00.796-.011c.214-.201 5.254-4.962 5.254-9.183A5.665 5.665 0 007.5 0zm0 8.356a2.698 2.698 0 110-5.396 2.698 2.698 0 010 5.396z"/></svg><svg fill="none" viewBox="0 0 85 86" id="right-drawn-arrow" xmlns="http://www.w3.org/2000/svg"><g clip-path="url(#lclip0)"><path d="M80.705 47.082c-3.314 1.688-6.94 2.813-10.38 4.127-.438.187-.938-.313-.938-.688.063-2.189 0-4.502.688-6.566l-.063-.062c-7.065-8.191-20.946-9.066-30.95-9.567-11.505-.625-23.635.5-33.765 6.253-1.125.875-2.313 1.813-3.376 2.876-.5.5-1.188-.187-.75-.75l.562-.563c-.25-.25-.25-.625.063-.938.75-.625 1.625-1.125 2.438-1.688 17.445-16.445 50.647-15.882 68.217-.438.438-1.563 1-3.126 1.376-4.752.125-.75 1.063-.687 1.438-.187 2.689 3.564 4.001 7.878 5.752 11.88.188.312.188.813-.312 1.063zm-5.878-10.88c-.438 1.188-1 2.251-1.376 3.502-.187.437-.625.5-.875.375-.188.187-.438.187-.688.062-17.445-12.443-39.767-14.38-58.087-5.064 8.378-2.501 17.632-2.752 26.073-2.314 6.19.313 12.256 1.126 18.196 2.689 4.627 1.25 9.879 3.376 12.193 7.816.312-.688 1.313-.188 1.188.437-.25 1.876-.438 3.69-.5 5.503 2.813-1.063 5.69-2.064 8.378-3.377-1.438-3.189-2.626-6.628-4.502-9.629z" fill="#8F8F8F"/></g><defs><clipPath id="lclip0"><path fill="#fff" transform="scale(1 -1) rotate(-45 -51.906 -21.5)" d="M0 0h60v60H0z"/></clipPath></defs></svg><svg fill="none" viewBox="0 0 12 13" id="select-arrow" xmlns="http://www.w3.org/2000/svg"><g clip-path="url(#mclip0)"><path d="M11.808 3.72l-.393-.395a.652.652 0 00-.464-.192.652.652 0 00-.464.192L6.003 7.809l-4.49-4.49a.651.651 0 00-.464-.19.652.652 0 00-.464.19l-.393.394a.657.657 0 000 .929l5.345 5.364c.123.123.288.21.465.21h.002a.67.67 0 00.464-.21l5.34-5.35a.663.663 0 000-.935z" fill="#8F8F8F"/></g><defs><clipPath id="mclip0"><path fill="#fff" transform="translate(0 .672)" d="M0 0h12v12H0z"/></clipPath></defs></svg><svg fill="none" viewBox="0 0 50 50" id="warranty" xmlns="http://www.w3.org/2000/svg"><path d="M47.964 19.595L37.5 15.11V6.25a.781.781 0 00-.229-.552L33.365 1.79a.78.78 0 00-.553-.228H3.907a2.344 2.344 0 00-2.344 2.343v42.188a2.343 2.343 0 002.344 2.343h31.25a2.343 2.343 0 002.344-2.343v-1.942l4.067-2.902a16.438 16.438 0 006.87-13.353v-7.584a.781.781 0 00-.473-.718zM35.938 6.572v.458H32.03V3.125h.458l3.449 3.448zm-.782 40.302H3.906a.781.781 0 01-.781-.781V3.906a.781.781 0 01.781-.781H30.47v4.688a.781.781 0 00.781.78h4.688v6.517l-10.465 4.485a.782.782 0 00-.473.718v7.584a16.437 16.437 0 006.87 13.353l4.067 2.902v1.942a.781.781 0 01-.78.781zm11.719-18.978a14.872 14.872 0 01-6.216 12.079l-3.94 2.814-3.94-2.813a14.872 14.872 0 01-6.217-12.08v-7.07l10.157-4.352 10.156 4.352v7.07z" fill="#000"/><path d="M36.428 18.805l-7.812 3.125a.781.781 0 00-.491.726v4.93a13.217 13.217 0 004.984 10.371l3.121 2.5a.782.782 0 00.977 0l3.121-2.5a13.217 13.217 0 004.984-10.371v-4.93a.78.78 0 00-.49-.726l-7.813-3.125a.787.787 0 00-.58 0zm7.322 4.38v4.4a11.659 11.659 0 01-4.398 9.15l-2.633 2.109-2.634-2.11a11.66 11.66 0 01-4.398-9.148v-4.4l7.032-2.813 7.031 2.812zM5.469 15.625h21.875a.781.781 0 00.781-.781V5.469a.781.781 0 00-.781-.782H5.469a.781.781 0 00-.782.782v9.375a.781.781 0 00.782.781zM6.25 6.25h20.313v7.813H6.25V6.25zM22.656 34.375H5.47a.781.781 0 00-.782.781v9.375a.781.781 0 00.782.782h17.187a.781.781 0 00.782-.782v-9.375a.781.781 0 00-.782-.781zm-.781 9.375H6.25v-7.813h15.625v7.813zM4.688 19.531h18.75v1.563H4.688V19.53zM4.688 24.219h18.75v1.562H4.688V24.22zM4.688 28.906h18.75v1.563H4.688v-1.563z" fill="#000"/></svg><svg fill="none" viewBox="0 0 57 50" id="washing-machine" xmlns="http://www.w3.org/2000/svg"><g clip-path="url(#oclip0)" fill="#000"><path d="M50.2 0H13.8a.732.732 0 00-.733.732v45.502c0 .404.328.732.732.732h.785v2.301c0 .405.327.733.732.733h33.368a.732.732 0 00.732-.733v-2.3h.785a.732.732 0 00.732-.733V32.663a.732.732 0 10-1.465 0v6.779H24.774a.732.732 0 100 1.465h24.694V45.5H47.9v-.648a2.388 2.388 0 00-2.386-2.385h-2.76a2.388 2.388 0 00-2.386 2.385v.648H14.532v-4.594h7.05a.732.732 0 100-1.465h-7.05V10.565H31.92a.732.732 0 000-1.465h-5.255V1.465h22.802V9.1H35.033a.732.732 0 100 1.465h14.435V29.55a.732.732 0 101.465 0V.732A.733.733 0 0050.201 0zm-8.367 44.853c0-.507.413-.92.92-.92h2.761c.508 0 .92.413.92.92v.648h-4.601v-.648zm6.119 2.113v1.569H16.048v-1.569h31.904zM14.532 1.465H25.2V9.1H14.53V1.465z"/><path d="M35.033 7.532h12.134a.732.732 0 00.733-.733V3.766a.732.732 0 00-.733-.733H35.033a.732.732 0 00-.732.733v3.033c0 .405.328.733.732.733zm.733-3.034h10.669v1.569h-10.67V4.498zM28.234 5.282c0 1.24 1.01 2.25 2.25 2.25s2.248-1.01 2.248-2.25-1.009-2.249-2.249-2.249a2.252 2.252 0 00-2.249 2.25zm3.033 0a.785.785 0 01-1.568 0 .785.785 0 011.568 0zM32.002 37.87c7.095 0 12.868-5.773 12.868-12.868 0-7.096-5.773-12.868-12.868-12.868-7.096 0-12.869 5.772-12.869 12.868 0 7.095 5.773 12.868 12.869 12.868zm0-24.272c6.287 0 11.403 5.116 11.403 11.404 0 6.287-5.116 11.403-11.403 11.403-6.288 0-11.404-5.116-11.404-11.403 0-6.288 5.116-11.404 11.404-11.404z"/><path d="M26.965 21.543A.732.732 0 0028 21.478a5.337 5.337 0 014.003-1.81.732.732 0 100-1.464c-1.952 0-3.811.84-5.102 2.306a.732.732 0 00.065 1.033zM16.833 3.033a.732.732 0 100 1.465.732.732 0 000-1.465zM19.866 3.033a.733.733 0 100 1.466.733.733 0 000-1.466zM22.9 3.034a.733.733 0 10.001 1.462.733.733 0 00-.002-1.462zM16.833 6.067a.732.732 0 10-.002 1.463.732.732 0 00.002-1.463zM19.87 6.067a.733.733 0 10-.008 1.465.733.733 0 00.008-1.465zM22.9 6.067A.733.733 0 1022.9 7.53a.733.733 0 00-.002-1.464zM22.115 12.866a.732.732 0 00-.732-.732h-4.55a.732.732 0 000 1.464h4.55a.732.732 0 00.732-.732z"/><path d="M22.17 25.002c0 5.42 4.411 9.83 9.832 9.83a9.773 9.773 0 004.35-1.015l.044-.022a9.824 9.824 0 005.437-8.793c0-5.476-4.438-9.79-9.754-9.83l-.077-.001c-5.405 0-9.831 4.394-9.831 9.83zm1.466.02c.56.108.929.335 1.364.603.678.418 1.445.89 2.92.89 1.476 0 2.244-.472 2.921-.89.61-.375 1.092-.672 2.153-.672 1.06 0 1.542.297 2.152.672.584.36 1.236.761 2.35.865a6.709 6.709 0 001.55 3.021 8.358 8.358 0 01-7.044 3.857c-4.607 0-8.356-3.743-8.366-8.347zm16.732-.02a8.324 8.324 0 01-.589 3.083A5.281 5.281 0 0138.8 25c0-1.125.343-2.19.98-3.084.38.955.589 1.997.589 3.086zm-8.366-8.366a12.772 12.772 0 01.142 0 8.367 8.367 0 016.9 3.854 6.728 6.728 0 00-1.71 4.503c-.591-.105-.97-.338-1.42-.615-.677-.417-1.444-.89-2.92-.89s-2.244.473-2.92.89c-.61.376-1.092.673-2.153.673-1.06 0-1.542-.297-2.152-.673-.521-.32-1.097-.675-2.008-.821.686-3.927 4.12-6.921 8.24-6.921z"/></g><rect x="7" y="15" width="23" height="23" rx="11.5" fill="#fff"/><g clip-path="url(#oclip1)" fill="#000"><path d="M11.836 26.133a.586.586 0 110 1.172.586.586 0 010-1.172z"/><path d="M.687 40.999l7.82-7.821a11.613 11.613 0 01-1.944-6.46C6.563 20.258 11.819 15 18.28 15S30 20.257 30 26.718c0 6.462-5.257 11.72-11.719 11.72-2.317 0-4.54-.672-6.46-1.946l-2.16 2.162h-.002l-5.658 5.66A2.328 2.328 0 012.344 45a2.328 2.328 0 01-1.657-.687A2.327 2.327 0 010 42.656c0-.626.244-1.215.687-1.657zm11.41-5.742a10.456 10.456 0 006.184 2.008c5.816 0 10.547-4.73 10.547-10.547 0-5.815-4.731-10.546-10.547-10.546-5.815 0-10.547 4.731-10.547 10.546 0 2.237.695 4.375 2.008 6.184a10.6 10.6 0 002.355 2.355zm-1.229.531a11.764 11.764 0 01-1.657-1.656L7.55 35.794c.506.597 1.06 1.151 1.657 1.657l1.662-1.663zm-9.353 7.697c.222.22.516.343.829.343.313 0 .607-.122.828-.344l5.203-5.202a15.391 15.391 0 01-1.657-1.657l-5.203 5.203a1.163 1.163 0 00-.343.828c0 .313.122.607.343.828z"/><path d="M18.281 17.343c5.17 0 9.375 4.206 9.375 9.375 0 5.17-4.205 9.375-9.375 9.375s-9.375-4.205-9.375-9.375c0-5.169 4.206-9.375 9.375-9.375zm0 17.579c4.524 0 8.203-3.68 8.203-8.203 0-4.524-3.68-8.204-8.203-8.204s-8.203 3.68-8.203 8.203c0 4.524 3.68 8.204 8.203 8.204z"/><path d="M11.715 24.203a7.032 7.032 0 012.54-3.247 6.981 6.981 0 014.026-1.269.586.586 0 110 1.172 5.9 5.9 0 00-5.472 3.765.586.586 0 11-1.094-.42z"/></g><defs><clipPath id="oclip0"><path fill="#fff" transform="translate(7)" d="M0 0h50v50H0z"/></clipPath><clipPath id="oclip1"><path fill="#fff" transform="matrix(-1 0 0 1 30 15)" d="M0 0h30v30H0z"/></clipPath></defs></svg><svg fill="none" viewBox="0 0 50 50" id="wrench" xmlns="http://www.w3.org/2000/svg"><g clip-path="url(#pclip0)" fill="#000"><path d="M45.612 33.593a8.725 8.725 0 00-6.117-1.007L31.905 25l7.596-7.593a8.807 8.807 0 009.318-4.227 8.724 8.724 0 00.878-6.666 8.728 8.728 0 00-4.095-5.334C41.406-1.24 36.02.201 33.597 4.396a8.716 8.716 0 00-1.007 6.115L25 18.098l-.616-.616a.976.976 0 10-1.38 1.381l.615.616-4.143 4.14-7.284-7.281 4.139-4.144.457.456a.977.977 0 001.38-1.38l-.764-.765a8.797 8.797 0 00-4.229-9.314A8.786 8.786 0 004.923.906c-.873.425-1.328.976-1.351 1.636-.023.648.37 1.21 1.165 1.669L7.36 5.724c.446.257.446.382.446.609v1.122c0 .7-.07.82-.676 1.17l-.972.56c-.19.11-.305.177-.751-.081L2.784 7.591c-.796-.46-1.478-.518-2.028-.174-.56.35-.81 1.019-.742 1.988a8.78 8.78 0 004.374 7.002 8.725 8.725 0 006.117 1.006L18.095 25 10.5 32.592A8.803 8.803 0 001.18 36.82a8.725 8.725 0 00-.878 6.666 8.728 8.728 0 004.095 5.334 8.795 8.795 0 0012.004-3.215 8.716 8.716 0 001.008-6.115L25 31.902l7.596 7.593a8.797 8.797 0 004.228 9.314 8.78 8.78 0 008.253.285c.873-.425 1.328-.976 1.35-1.636.023-.648-.369-1.21-1.165-1.67l-2.621-1.512c-.446-.258-.446-.382-.446-.609v-1.122c0-.7.07-.82.675-1.17l.973-.561c.19-.11.304-.176.751.082l2.622 1.513c.795.459 1.478.518 2.028.174.56-.35.81-1.02.742-1.988a8.778 8.778 0 00-4.374-7.002zM5.364 14.715a6.828 6.828 0 01-3.393-5.338l2.458 1.418c.611.353 1.556.745 2.704.082l.973-.56C9.31 9.62 9.758 8.845 9.758 7.454V6.333c0-1.326-.812-1.948-1.423-2.3L5.877 2.613a6.835 6.835 0 019.57 7.701l-5.133 5.14a6.786 6.786 0 01-4.95-.74zm29.925-9.342c1.884-3.263 6.073-4.385 9.337-2.501A6.788 6.788 0 0147.81 7.02a6.784 6.784 0 01-.682 5.184 6.85 6.85 0 01-5.925 3.418 6.796 6.796 0 01-1.512-.171l-5.142-5.132a6.778 6.778 0 01.74-4.946zM14.71 44.627c-1.884 3.263-6.073 4.384-9.337 2.5A6.787 6.787 0 012.19 42.98a6.784 6.784 0 01.682-5.183 6.85 6.85 0 017.437-3.247l5.143 5.131a6.78 6.78 0 01-.74 4.947zm1.624-6.825l-4.146-4.137 21.477-21.468 4.146 4.137-21.477 21.468zm10.046-7.28l4.143-4.141 7.284 7.28-4.139 4.145-7.288-7.285zm19.19 8.682c-.611-.352-1.556-.744-2.704-.082l-.972.561c-1.205.696-1.653 1.471-1.653 2.862v1.122c0 1.326.812 1.948 1.423 2.3l2.458 1.419a6.835 6.835 0 01-9.57-7.702l5.133-5.14a6.787 6.787 0 014.95.74 6.828 6.828 0 013.393 5.34l-2.458-1.42z"/><path d="M37.79 11.325l2.93 1.69a.975.975 0 00.976 0l2.93-1.69a.976.976 0 00.488-.846V7.098a.976.976 0 00-.488-.846l-2.93-1.69a.976.976 0 00-.976 0l-2.93 1.69a.976.976 0 00-.488.846v3.381c0 .349.186.671.489.846zm1.465-3.663l1.953-1.127 1.953 1.127v2.253l-1.953 1.127-1.953-1.127V7.662zM12.21 38.675l-2.93-1.69a.977.977 0 00-.976 0l-2.93 1.69a.977.977 0 00-.488.846v3.38c0 .35.186.672.488.846l2.93 1.691a.975.975 0 00.976 0l2.93-1.69a.976.976 0 00.488-.846V39.52a.977.977 0 00-.489-.846zm-1.465 3.663l-1.953 1.127-1.953-1.127v-2.253l1.953-1.127 1.953 1.127v2.253zM20.586 16.043a.977.977 0 000-1.953.976.976 0 100 1.953z"/></g><defs><clipPath id="pclip0"><path fill="#fff" d="M0 0h50v50H0z"/></clipPath></defs></svg></svg>